<svg width="130" height="30" viewBox="0 0 130 30" fill="none" xmlns="http://www.w3.org/2000/svg">
<path d="M125.172 23.7195C125.525 23.1721 125.728 22.5717 125.781 21.9183C125.834 21.265 125.861 20.6205 125.861 19.9848C125.349 20.6381 124.722 21.0972 123.98 21.3621C123.239 21.627 122.435 21.7594 121.57 21.7594C120.563 21.7594 119.689 21.6093 118.948 21.3091C118.224 21.0089 117.65 20.5498 117.226 19.9318C116.802 19.3667 116.511 18.7046 116.352 17.9452C116.193 17.1683 116.114 16.3295 116.114 15.429V7.58875H119.848V14.9787C119.848 15.4555 119.884 15.9234 119.954 16.3825C120.042 16.824 120.219 17.1948 120.484 17.495C120.908 18.1307 121.676 18.4485 122.788 18.4485C123.318 18.4485 123.812 18.3426 124.272 18.1307C124.731 17.9011 125.093 17.5479 125.358 17.0712C125.587 16.665 125.728 16.2412 125.781 15.7998C125.834 15.3407 125.861 14.8462 125.861 14.3165V7.58875H129.622V19.0577C129.622 19.6934 129.613 20.3468 129.596 21.0178C129.596 21.6711 129.543 22.3156 129.437 22.9513C129.348 23.587 129.181 24.2051 128.933 24.8054C128.686 25.4058 128.342 25.962 127.9 26.4741C127.282 27.1805 126.47 27.7455 125.464 28.1693C124.475 28.5931 123.283 28.7962 121.888 28.7785C120.864 28.7962 119.848 28.6549 118.842 28.3547C117.835 28.0722 116.908 27.6572 116.061 27.1098L117.252 23.9314C117.712 24.2669 118.321 24.5759 119.08 24.8584C119.857 25.1409 120.766 25.2822 121.808 25.2822C122.656 25.2822 123.345 25.1409 123.874 24.8584C124.422 24.5935 124.854 24.2139 125.172 23.7195Z" fill="#080808"/>
<path d="M107.947 18.4485C108.654 18.4485 109.21 18.2807 109.616 17.9452C110.04 17.6097 110.296 17.2301 110.384 16.8063H114.304C114.181 17.7068 113.925 18.4661 113.536 19.0842C113.148 19.7022 112.662 20.2143 112.079 20.6204C111.514 21.0266 110.87 21.3179 110.146 21.4945C109.422 21.6711 108.671 21.7594 107.894 21.7594C106.729 21.7594 105.714 21.6005 104.848 21.2826C104.001 20.9471 103.295 20.4703 102.729 19.8523C102.164 19.2166 101.732 18.4573 101.432 17.5744C101.149 16.6738 101.008 15.6673 101.008 14.5549C101.008 13.4777 101.167 12.4889 101.485 11.5883C101.802 10.6877 102.253 9.9196 102.835 9.28391C103.436 8.64821 104.169 8.16261 105.034 7.82711C105.899 7.47394 106.888 7.29736 108 7.29736C108.813 7.29736 109.572 7.39448 110.278 7.58872C111.002 7.78296 111.638 8.08315 112.185 8.48929C112.75 8.89543 113.21 9.41634 113.563 10.052C113.934 10.6701 114.181 11.4117 114.304 12.277H110.384C110.296 11.8532 110.031 11.4735 109.59 11.138C109.166 10.8025 108.61 10.6348 107.921 10.6348C107.338 10.6348 106.835 10.7407 106.411 10.9526C105.987 11.1645 105.652 11.4559 105.405 11.8267C105.157 12.1975 104.981 12.6213 104.875 13.0981C104.769 13.5748 104.716 14.0781 104.716 14.6078C104.716 15.1729 104.778 15.6938 104.901 16.1706C105.025 16.6297 105.21 17.0358 105.458 17.389C105.705 17.7245 106.032 17.9894 106.438 18.1836C106.861 18.3602 107.365 18.4485 107.947 18.4485Z" fill="#080808"/>
<path d="M89.6342 9.36342C90.7644 8.00374 92.1593 7.31507 93.8192 7.29741C94.7198 7.27976 95.5144 7.42985 96.2031 7.7477C96.8917 8.04789 97.448 8.46285 97.8718 8.9926C98.3838 9.61063 98.737 10.3346 98.9312 11.1645C99.1255 11.9768 99.2226 12.8862 99.2226 13.8927V21.5475H95.4614V14.1841C95.4614 13.6897 95.4084 13.2217 95.3025 12.7803C95.2142 12.3212 95.0553 11.9327 94.8257 11.6148C94.5962 11.2793 94.2872 11.0321 93.8987 10.8732C93.5279 10.7143 93.1041 10.6348 92.6273 10.6348C92.0269 10.6525 91.5148 10.7849 91.091 11.0321C90.6849 11.2793 90.3759 11.5972 90.164 11.9857C89.9521 12.3565 89.802 12.7803 89.7137 13.257C89.6431 13.7162 89.6077 14.1841 89.6077 14.6609V21.5475H85.873V7.58878H89.4488L89.6342 9.36342Z" fill="#080808"/>
<path d="M77.4737 18.7134C78.0035 18.7134 78.4537 18.6339 78.8246 18.475C79.213 18.2984 79.5309 18.0159 79.7781 17.6274H83.6982C83.504 18.3514 83.2038 18.9782 82.7976 19.508C82.4092 20.0377 81.9324 20.4703 81.3673 20.8058C80.8199 21.1414 80.2107 21.3886 79.5397 21.5475C78.8687 21.6888 78.1624 21.7594 77.4207 21.7594C75.1605 21.7594 73.4477 21.1237 72.2822 19.8523C71.1344 18.5809 70.5605 16.7974 70.5605 14.5019C70.5605 13.4601 70.7106 12.4977 71.0108 11.6148C71.3287 10.7319 71.7701 9.97257 72.3352 9.33688C72.9003 8.68353 73.5977 8.18027 74.4277 7.82711C75.2753 7.47394 76.2376 7.29736 77.3148 7.29736C78.5685 7.29736 79.6545 7.51809 80.5727 7.95954C81.4909 8.401 82.2149 9.0102 82.7447 9.78716C83.2921 10.5465 83.6541 11.4382 83.8306 12.4624C84.0249 13.4865 84.0249 14.5813 83.8306 15.7468H74.2952C74.3659 16.5767 74.6572 17.283 75.1693 17.8658C75.6814 18.4308 76.4495 18.7134 77.4737 18.7134ZM80.3608 13.1775C80.3608 12.7361 80.2814 12.3476 80.1224 12.0121C79.9635 11.6589 79.7516 11.3764 79.4867 11.1645C79.2219 10.9349 78.904 10.7672 78.5332 10.6612C78.18 10.5553 77.8092 10.5023 77.4207 10.5023C76.4849 10.52 75.752 10.776 75.2223 11.2704C74.7102 11.7472 74.41 12.3829 74.3217 13.1775H80.3608Z" fill="#080808"/>
<path d="M64.9268 20.1172C64.397 20.7176 63.7613 21.1414 63.0197 21.3886C62.2781 21.6358 61.4746 21.7594 60.6094 21.7594C59.7441 21.7594 58.8965 21.627 58.0666 21.3621C57.2543 21.0796 56.548 20.6293 55.9476 20.0112C55.2766 19.3049 54.8087 18.4926 54.5438 17.5744C54.2789 16.6562 54.1465 15.7115 54.1465 14.7403C54.1465 12.4447 54.7822 10.6083 56.0536 9.23094C56.601 8.63056 57.3073 8.16262 58.1725 7.82712C59.0554 7.49161 60.0002 7.33269 61.0067 7.35035C61.66 7.31503 62.3664 7.42981 63.1257 7.69468C63.885 7.95955 64.5383 8.40101 65.0857 9.01904L65.483 7.58873H68.7145V20.6734C68.7145 21.2385 68.6791 21.7947 68.6085 22.3421C68.5555 22.9072 68.4584 23.4458 68.3171 23.9578C68.1759 24.4876 67.964 24.9908 67.6815 25.4676C67.3636 26.0503 66.9751 26.5448 66.516 26.9509C66.0746 27.357 65.5801 27.6925 65.0327 27.9574C64.4853 28.2399 63.9026 28.443 63.2846 28.5666C62.6665 28.6902 62.0397 28.752 61.404 28.752C60.5917 28.752 59.8148 28.6549 59.0731 28.4607C58.3315 28.2841 57.6516 27.9839 57.0336 27.5601C56.4332 27.154 55.93 26.633 55.5238 25.9974C55.1353 25.3617 54.8793 24.6024 54.7557 23.7195H58.7288C58.7994 24.1432 59.0819 24.5229 59.5764 24.8584C60.0708 25.1939 60.6712 25.3617 61.3775 25.3617C62.1368 25.3617 62.7548 25.2116 63.2316 24.9114C63.726 24.6112 64.0969 24.2139 64.3441 23.7195C64.5913 23.225 64.7502 22.66 64.8208 22.0243C64.8915 21.3886 64.9268 20.7529 64.9268 20.1172ZM61.457 18.4485C62.0397 18.4485 62.5518 18.3425 62.9932 18.1306C63.4523 17.9187 63.8231 17.6362 64.1057 17.2831C64.3882 16.9122 64.6001 16.4884 64.7414 16.0117C64.8826 15.5172 64.9533 14.9963 64.9533 14.4489C64.9533 13.3541 64.6443 12.4536 64.0262 11.7472C63.4258 11.0232 62.5606 10.6524 61.4305 10.6348C60.8478 10.6348 60.3268 10.7407 59.8677 10.9526C59.4263 11.1645 59.0554 11.447 58.7553 11.8002C58.4727 12.1534 58.2608 12.5683 58.1196 13.0451C57.9783 13.5219 57.9077 14.034 57.9077 14.5814C57.9077 15.1641 57.9783 15.6938 58.1196 16.1706C58.2785 16.6297 58.508 17.0358 58.8082 17.389C59.1084 17.7245 59.4792 17.9894 59.9207 18.1836C60.3622 18.3602 60.8742 18.4485 61.457 18.4485Z" fill="#080808"/>
<path d="M48.8174 19.8258C48.2877 20.5321 47.6431 21.0354 46.8838 21.3356C46.1245 21.6358 45.2416 21.777 44.2351 21.7594C42.9461 21.7241 41.8689 21.3621 41.0037 20.6734C40.5446 20.2849 40.1826 19.8258 39.9177 19.2961C39.6705 18.7487 39.5469 18.1042 39.5469 17.3625C39.5645 16.6032 39.7323 15.9322 40.0501 15.3495C40.3856 14.7491 40.8889 14.2547 41.5599 13.8662C42.125 13.566 42.7607 13.3541 43.467 13.2305C44.191 13.1069 44.9768 13.0451 45.8243 13.0451H48.685C48.7379 12.1798 48.5349 11.5353 48.0758 11.1115C47.6343 10.6701 47.0074 10.4405 46.1952 10.4229C45.9303 10.4229 45.6566 10.4405 45.3741 10.4758C45.0915 10.5111 44.8267 10.5818 44.5794 10.6877C44.3499 10.7937 44.1468 10.9438 43.9702 11.138C43.8113 11.3146 43.7054 11.5353 43.6524 11.8002H39.8117C39.9 10.9526 40.1296 10.2463 40.5004 9.68121C40.8889 9.0985 41.3745 8.63055 41.9572 8.27739C42.5399 7.92423 43.1845 7.67701 43.8908 7.53575C44.6148 7.37683 45.3564 7.29736 46.1157 7.29736C46.5395 7.29736 46.9721 7.32385 47.4136 7.37683C47.855 7.41214 48.2877 7.50043 48.7115 7.6417C49.1352 7.76531 49.5326 7.94189 49.9034 8.17144C50.2919 8.38334 50.6539 8.66587 50.9894 9.01903C51.5897 9.7077 51.9606 10.5023 52.1018 11.4029C52.2607 12.2858 52.3314 13.151 52.3137 13.9986V21.5475H48.8969L48.8174 19.8258ZM48.685 15.376H45.9568C45.6919 15.376 45.3917 15.4025 45.0562 15.4554C44.7207 15.5084 44.4294 15.6055 44.1821 15.7468C43.9349 15.8881 43.723 16.0735 43.5464 16.303C43.3875 16.5326 43.3081 16.8151 43.3081 17.1506C43.3081 17.4331 43.361 17.6804 43.467 17.8923C43.5906 18.1042 43.7407 18.2807 43.9173 18.422C44.1115 18.5633 44.3411 18.678 44.6059 18.7663C44.8708 18.837 45.1357 18.8723 45.4006 18.8723C45.9126 18.8899 46.3894 18.8016 46.8309 18.6074C47.29 18.4132 47.6873 18.1395 48.0228 17.7863C48.2347 17.5038 48.3936 17.1859 48.4996 16.8328C48.6232 16.4619 48.685 15.9763 48.685 15.376Z" fill="#080808"/>
<path fill-rule="evenodd" clip-rule="evenodd" d="M29.4062 15.6461C29.2566 18.261 28.4111 20.7943 26.9503 22.9805C25.3334 25.4004 23.0352 27.2865 20.3464 28.4002C17.6575 29.514 14.6988 29.8054 11.8444 29.2376C8.9899 28.6698 6.36791 27.2683 4.30997 25.2104C2.25202 23.1524 0.85054 20.5305 0.282754 17.676C-0.285033 14.8215 0.00637583 11.8628 1.12013 9.17399C2.23388 6.48515 4.11996 4.18696 6.53985 2.57004C8.72609 1.10924 11.2593 0.263777 13.8743 0.114136V7.49586C12.7167 7.62902 11.603 8.03581 10.6275 8.68763C9.41754 9.49609 8.47451 10.6452 7.91763 11.9896C7.36075 13.334 7.21505 14.8134 7.49894 16.2406C7.78283 17.6678 8.48357 18.9788 9.51255 20.0078C10.5415 21.0368 11.8525 21.7375 13.2797 22.0214C14.707 22.3053 16.1863 22.1596 17.5307 21.6027C18.8752 21.0458 20.0243 20.1028 20.8327 18.8929C21.4845 17.9173 21.8913 16.8037 22.0245 15.6461H29.4062Z" fill="#080808"/>
<path fill-rule="evenodd" clip-rule="evenodd" d="M22.0684 0.0900879H16.0488V7.44763H22.0684L22.0684 13.4672L29.4259 13.4672L29.4259 7.44763H29.4262V0.0900879H28.08H22.0684Z" fill="#080808"/>
</svg>
