<svg width="184" height="40" viewBox="0 0 184 40" fill="none" xmlns="http://www.w3.org/2000/svg">
<path d="M171.205 14.4603H174.484L174.612 16.1766C175.039 15.5277 175.568 15.0324 176.2 14.6909C176.849 14.3323 177.566 14.153 178.352 14.153C181.545 14.153 183.133 16.1083 183.116 20.0189V20.7106H183.142V27.2682H179.684V20.7106H179.658C179.658 19.481 179.445 18.6272 179.018 18.149C178.608 17.6538 178.01 17.4061 177.225 17.4061C176.388 17.4061 175.748 17.6794 175.304 18.2258C174.877 18.7552 174.663 19.5237 174.663 20.5313V27.2682H171.205V14.4603Z" fill="#080808"/>
<path d="M162.342 27.5756C161.045 27.5756 159.883 27.2938 158.859 26.7303C157.834 26.1496 157.031 25.3555 156.451 24.348C155.887 23.3234 155.605 22.1621 155.605 20.8643C155.605 19.5664 155.887 18.4137 156.451 17.4061C157.031 16.3815 157.825 15.5874 158.833 15.0239C159.841 14.4433 160.993 14.153 162.291 14.153C163.589 14.153 164.742 14.4433 165.749 15.0239C166.774 15.5874 167.568 16.3815 168.132 17.4061C168.712 18.4137 169.002 19.5664 169.002 20.8643C169.002 22.1621 168.721 23.3234 168.157 24.348C167.594 25.3555 166.8 26.1496 165.775 26.7303C164.767 27.2938 163.623 27.5756 162.342 27.5756ZM159.166 20.8643C159.166 21.906 159.456 22.7598 160.037 23.4258C160.635 24.0748 161.403 24.3992 162.342 24.3992C163.265 24.3992 164.016 24.0748 164.597 23.4258C165.177 22.7598 165.468 21.906 165.468 20.8643C165.468 19.8226 165.169 18.9772 164.571 18.3283C163.99 17.6623 163.23 17.3293 162.291 17.3293C161.386 17.3293 160.635 17.6623 160.037 18.3283C159.456 18.9772 159.166 19.8226 159.166 20.8643Z" fill="#080808"/>
<path d="M149.748 14.4604H153.206V27.2682H149.748V14.4604ZM151.49 12.4367C150.944 12.4367 150.474 12.2404 150.081 11.8476C149.689 11.4548 149.492 10.9937 149.492 10.4643C149.492 9.91786 149.689 9.44824 150.081 9.05547C150.491 8.6627 150.961 8.46631 151.49 8.46631C152.02 8.46631 152.481 8.6627 152.873 9.05547C153.266 9.44824 153.463 9.91786 153.463 10.4643C153.463 10.9937 153.266 11.4548 152.873 11.8476C152.498 12.2404 152.037 12.4367 151.49 12.4367Z" fill="#080808"/>
<path d="M144.515 27.5756C143.098 27.5756 142.013 27.2256 141.262 26.5254C140.528 25.8252 140.161 24.8177 140.161 23.5027V17.3806H138.111V14.4604H140.161V10.4644H143.619V14.4604H146.795V17.3806H143.619V22.7343C143.619 23.2978 143.73 23.7162 143.952 23.9894C144.191 24.2456 144.549 24.3737 145.028 24.3737C145.369 24.3737 145.753 24.22 146.18 23.9126L147.41 26.4998C146.983 26.8242 146.513 27.0804 146.001 27.2682C145.489 27.4732 144.993 27.5756 144.515 27.5756Z" fill="#080808"/>
<path d="M133.187 25.8081C132.47 26.9864 131.291 27.5756 129.652 27.5756C128.115 27.5756 126.92 27.234 126.066 26.5509C125.229 25.8679 124.811 24.903 124.811 23.6564C124.811 22.3073 125.263 21.2827 126.168 20.5825C127.073 19.8823 128.354 19.5322 130.011 19.5322H133.059C132.82 17.9441 132.043 17.15 130.728 17.15C129.601 17.15 128.747 17.6281 128.166 18.5845L125.118 17.5342C125.528 16.5779 126.194 15.7753 127.116 15.1263C128.055 14.4774 129.259 14.153 130.728 14.153C132.64 14.153 134.092 14.6909 135.082 15.7667C136.073 16.8255 136.551 18.2942 136.517 20.1726L136.466 27.2682H133.238L133.187 25.8081ZM128.346 23.5539C128.346 23.9125 128.516 24.2028 128.858 24.4248C129.199 24.6298 129.669 24.7322 130.267 24.7322C130.796 24.7322 131.274 24.6042 131.701 24.348C132.145 24.0918 132.495 23.7588 132.751 23.349C133.008 22.9391 133.136 22.5122 133.136 22.0682H131.24C130.198 22.0682 129.456 22.1963 129.012 22.4524C128.568 22.6915 128.346 23.0587 128.346 23.5539Z" fill="#080808"/>
<path d="M117.719 27.5756C116.387 27.5756 115.2 27.2938 114.158 26.7303C113.116 26.1496 112.297 25.3555 111.699 24.348C111.118 23.3234 110.828 22.1621 110.828 20.8643C110.828 19.5664 111.118 18.4137 111.699 17.4061C112.28 16.3815 113.091 15.5874 114.133 15.0239C115.174 14.4433 116.353 14.153 117.668 14.153C118.982 14.153 120.161 14.4774 121.202 15.1263C122.261 15.7753 123.03 16.6889 123.508 17.8672L120.255 19.0199C120.016 18.5247 119.648 18.1319 119.153 17.8416C118.658 17.5513 118.112 17.4061 117.514 17.4061C116.592 17.4061 115.84 17.7306 115.26 18.3795C114.679 19.0114 114.389 19.8396 114.389 20.8643C114.389 21.8718 114.679 22.7001 115.26 23.349C115.857 23.9979 116.626 24.3224 117.565 24.3224C118.163 24.3224 118.709 24.1687 119.204 23.8613C119.7 23.5368 120.067 23.1099 120.306 22.5805L123.585 23.7332C123.09 24.9457 122.321 25.8935 121.279 26.5766C120.238 27.2426 119.051 27.5756 117.719 27.5756Z" fill="#080808"/>
<path d="M104.971 14.4604H108.429V27.2682H104.971V14.4604ZM106.713 12.4367C106.166 12.4367 105.697 12.2404 105.304 11.8476C104.911 11.4548 104.715 10.9937 104.715 10.4643C104.715 9.91786 104.911 9.44824 105.304 9.05547C105.714 8.6627 106.183 8.46631 106.713 8.46631C107.242 8.46631 107.703 8.6627 108.096 9.05547C108.489 9.44824 108.685 9.91786 108.685 10.4643C108.685 10.9937 108.489 11.4548 108.096 11.8476C107.72 12.2404 107.259 12.4367 106.713 12.4367Z" fill="#080808"/>
<path d="M98.4121 8.82495H101.87V27.2682H98.4121V8.82495Z" fill="#080808"/>
<path d="M83.1543 14.4603H86.4331L86.5612 16.2278C86.9881 15.5618 87.526 15.0495 88.175 14.6909C88.841 14.3323 89.6009 14.153 90.4548 14.153C91.616 14.153 92.6321 14.4262 93.503 14.9727C94.391 15.5191 95.0656 16.2961 95.5267 17.3037C96.0048 18.3112 96.2439 19.4981 96.2439 20.8643C96.2439 22.2134 96.0048 23.4002 95.5267 24.4248C95.0656 25.4324 94.391 26.2094 93.503 26.7559C92.6321 27.3023 91.616 27.5756 90.4548 27.5756C89.618 27.5756 88.8751 27.4048 88.2262 27.0633C87.5773 26.7046 87.0393 26.2009 86.6124 25.5519V32.3913H83.1543V14.4603ZM86.6124 20.8643C86.6124 21.906 86.8856 22.7598 87.4321 23.4258C87.9957 24.0748 88.7129 24.3992 89.5838 24.3992C90.4718 24.3992 91.2062 24.0662 91.7868 23.4002C92.3674 22.7342 92.6577 21.8889 92.6577 20.8643C92.6577 19.8396 92.3674 19.0029 91.7868 18.3539C91.2232 17.6879 90.4975 17.3549 89.6095 17.3549C88.7214 17.3549 87.9957 17.6794 87.4321 18.3283C86.8856 18.9772 86.6124 19.8226 86.6124 20.8643Z" fill="#080808"/>
<path d="M67.7695 14.4603H71.0483L71.1764 16.2278C71.6033 15.5618 72.1413 15.0495 72.7902 14.6909C73.4562 14.3323 74.2161 14.153 75.07 14.153C76.2312 14.153 77.2473 14.4262 78.1183 14.9727C79.0063 15.5191 79.6808 16.2961 80.1419 17.3037C80.6201 18.3112 80.8591 19.4981 80.8591 20.8643C80.8591 22.2134 80.6201 23.4002 80.1419 24.4248C79.6808 25.4324 79.0063 26.2094 78.1183 26.7559C77.2473 27.3023 76.2312 27.5756 75.07 27.5756C74.2332 27.5756 73.4904 27.4048 72.8414 27.0633C72.1925 26.7046 71.6546 26.2009 71.2276 25.5519V32.3913H67.7695V14.4603ZM71.2276 20.8643C71.2276 21.906 71.5009 22.7598 72.0474 23.4258C72.6109 24.0748 73.3281 24.3992 74.1991 24.3992C75.0871 24.3992 75.8214 24.0662 76.402 23.4002C76.9826 22.7342 77.273 21.8889 77.273 20.8643C77.273 19.8396 76.9826 19.0029 76.402 18.3539C75.8385 17.6879 75.1127 17.3549 74.2247 17.3549C73.3367 17.3549 72.6109 17.6794 72.0474 18.3283C71.5009 18.9772 71.2276 19.8226 71.2276 20.8643Z" fill="#080808"/>
<path d="M61.6439 25.8081C60.9267 26.9864 59.7483 27.5756 58.1089 27.5756C56.572 27.5756 55.3766 27.234 54.5227 26.5509C53.686 25.8679 53.2676 24.903 53.2676 23.6564C53.2676 22.3073 53.7201 21.2827 54.6252 20.5825C55.5303 19.8823 56.8111 19.5322 58.4676 19.5322H61.5158C61.2768 17.9441 60.4997 17.15 59.1848 17.15C58.0577 17.15 57.2039 17.6281 56.6232 18.5845L53.575 17.5342C53.9848 16.5779 54.6508 15.7753 55.573 15.1263C56.5122 14.4774 57.7162 14.153 59.1848 14.153C61.0974 14.153 62.549 14.6909 63.5395 15.7667C64.5299 16.8255 65.0081 18.2942 64.9739 20.1726L64.9227 27.2682H61.6951L61.6439 25.8081ZM56.8025 23.5539C56.8025 23.9125 56.9733 24.2028 57.3149 24.4248C57.6564 24.6298 58.126 24.7322 58.7237 24.7322C59.2531 24.7322 59.7313 24.6042 60.1582 24.348C60.6022 24.0918 60.9523 23.7588 61.2084 23.349C61.4646 22.9391 61.5927 22.5122 61.5927 22.0682H59.6971C58.6554 22.0682 57.9126 22.1963 57.4686 22.4524C57.0245 22.6915 56.8025 23.0587 56.8025 23.5539Z" fill="#080808"/>
<path fill-rule="evenodd" clip-rule="evenodd" d="M18.0109 32.2358H9.737C4.8653 32.2358 0.916016 28.2865 0.916016 23.4148C0.916016 19.1186 4.19024 15.5871 8.37948 15.1795C8.67487 10.878 12.2578 7.48022 16.6344 7.48022H16.9076C19.2618 7.48022 21.3938 8.43198 22.9396 9.97171C25.0122 8.40765 27.5921 7.48022 30.3887 7.48022H31.0101C37.503 7.48022 42.7665 12.7437 42.7665 19.2366C42.7665 26.4159 36.9465 32.2359 29.7672 32.2359H18.0109V32.2358Z" fill="#080808"/>
</svg>
