<svg width="155" height="33" viewBox="0 0 155 33" fill="none" xmlns="http://www.w3.org/2000/svg">
<path d="M153.403 16.1025L149.734 16.3282C149.672 16.0147 149.537 15.7325 149.33 15.4817C149.123 15.2246 148.85 15.0208 148.512 14.8703C148.179 14.7135 147.781 14.6352 147.317 14.6352C146.696 14.6352 146.173 14.7668 145.746 15.0302C145.32 15.2873 145.107 15.6322 145.107 16.0649C145.107 16.4098 145.245 16.7013 145.52 16.9396C145.796 17.1779 146.27 17.3692 146.941 17.5134L149.556 18.0401C150.96 18.3286 152.007 18.7926 152.697 19.4322C153.387 20.0718 153.732 20.9121 153.732 21.953C153.732 22.8999 153.453 23.7307 152.895 24.4456C152.343 25.1604 151.584 25.7185 150.618 26.1199C149.659 26.5149 148.552 26.7124 147.298 26.7124C145.386 26.7124 143.862 26.3142 142.727 25.5179C141.598 24.7152 140.937 23.6241 140.742 22.2446L144.683 22.0377C144.802 22.6208 145.091 23.066 145.549 23.3733C146.006 23.6743 146.593 23.8248 147.308 23.8248C148.01 23.8248 148.574 23.69 149.001 23.4203C149.433 23.1444 149.653 22.7901 149.659 22.3575C149.653 21.9938 149.499 21.6959 149.198 21.4639C148.897 21.2256 148.433 21.0438 147.806 20.9183L145.304 20.4198C143.893 20.1377 142.843 19.6485 142.153 18.9525C141.47 18.2565 141.128 17.3692 141.128 16.2906C141.128 15.3626 141.379 14.563 141.88 13.8921C142.388 13.2211 143.1 12.7038 144.015 12.3401C144.937 11.9764 146.016 11.7946 147.251 11.7946C149.076 11.7946 150.512 12.1802 151.559 12.9515C152.613 13.7228 153.227 14.7731 153.403 16.1025Z" fill="#080808"/>
<path d="M138.53 16.1025L134.861 16.3282C134.799 16.0147 134.664 15.7325 134.457 15.4817C134.25 15.2246 133.977 15.0208 133.638 14.8703C133.306 14.7135 132.908 14.6352 132.444 14.6352C131.823 14.6352 131.3 14.7668 130.873 15.0302C130.447 15.2873 130.234 15.6322 130.234 16.0649C130.234 16.4098 130.371 16.7013 130.647 16.9396C130.923 17.1779 131.397 17.3692 132.068 17.5134L134.683 18.0401C136.087 18.3286 137.134 18.7926 137.824 19.4322C138.514 20.0718 138.859 20.9121 138.859 21.953C138.859 22.8999 138.58 23.7307 138.022 24.4456C137.47 25.1604 136.711 25.7185 135.745 26.1199C134.786 26.5149 133.679 26.7124 132.425 26.7124C130.513 26.7124 128.989 26.3142 127.854 25.5179C126.725 24.7152 126.064 23.6241 125.869 22.2446L129.81 22.0377C129.929 22.6208 130.218 23.066 130.676 23.3733C131.133 23.6743 131.72 23.8248 132.435 23.8248C133.137 23.8248 133.701 23.69 134.128 23.4203C134.56 23.1444 134.78 22.7901 134.786 22.3575C134.78 21.9938 134.626 21.6959 134.325 21.4639C134.024 21.2256 133.56 21.0438 132.933 20.9183L130.431 20.4198C129.02 20.1377 127.97 19.6485 127.28 18.9525C126.597 18.2565 126.255 17.3692 126.255 16.2906C126.255 15.3626 126.506 14.563 127.007 13.8921C127.515 13.2211 128.227 12.7038 129.142 12.3401C130.064 11.9764 131.143 11.7946 132.378 11.7946C134.203 11.7946 135.639 12.1802 136.686 12.9515C137.739 13.7228 138.354 14.7731 138.53 16.1025Z" fill="#080808"/>
<path d="M117.263 26.7124C115.777 26.7124 114.498 26.4114 113.425 25.8095C112.359 25.2012 111.538 24.3421 110.961 23.2322C110.384 22.116 110.096 20.7961 110.096 19.2723C110.096 17.7862 110.384 16.4819 110.961 15.3594C111.538 14.237 112.35 13.3622 113.397 12.7352C114.451 12.1081 115.686 11.7946 117.103 11.7946C118.056 11.7946 118.944 11.9482 119.765 12.2554C120.593 12.5564 121.314 13.0111 121.928 13.6193C122.549 14.2276 123.032 14.9926 123.377 15.9144C123.722 16.8299 123.894 17.9022 123.894 19.1312V20.2317H111.695V17.7485H120.122C120.122 17.1716 119.997 16.6606 119.746 16.2154C119.495 15.7701 119.147 15.4221 118.702 15.1713C118.263 14.9142 117.752 14.7857 117.169 14.7857C116.561 14.7857 116.021 14.9267 115.551 15.2089C115.087 15.4848 114.723 15.8579 114.46 16.3282C114.197 16.7923 114.062 17.3096 114.056 17.8802V20.2411C114.056 20.956 114.187 21.5736 114.451 22.0941C114.72 22.6146 115.1 23.0159 115.589 23.2981C116.078 23.5802 116.658 23.7213 117.329 23.7213C117.774 23.7213 118.182 23.6586 118.552 23.5332C118.922 23.4078 119.238 23.2197 119.502 22.9689C119.765 22.718 119.966 22.4108 120.104 22.0471L123.81 22.2916C123.621 23.1821 123.236 23.9596 122.653 24.6243C122.076 25.2827 121.33 25.7969 120.414 26.1669C119.505 26.5306 118.454 26.7124 117.263 26.7124Z" fill="#080808"/>
<path d="M98.2101 18.0777V26.4302H94.2031V11.9827H98.022V14.5317H98.1913C98.5111 13.6914 99.0472 13.0267 99.7997 12.5376C100.552 12.0422 101.465 11.7946 102.537 11.7946C103.54 11.7946 104.415 12.014 105.161 12.453C105.907 12.8919 106.487 13.519 106.901 14.3342C107.315 15.1431 107.522 16.1088 107.522 17.2312V26.4302H103.515V17.9461C103.521 17.0619 103.296 16.3721 102.838 15.8767C102.38 15.3751 101.75 15.1243 100.947 15.1243C100.408 15.1243 99.9314 15.2403 99.5175 15.4723C99.1099 15.7043 98.7901 16.0429 98.5581 16.4881C98.3323 16.9271 98.2163 17.457 98.2101 18.0777Z" fill="#080808"/>
<path d="M86.9845 26.4302V11.9826H90.9914V26.4302H86.9845ZM88.9974 10.1203C88.4016 10.1203 87.8906 9.92273 87.4642 9.52768C87.0441 9.12636 86.834 8.64666 86.834 8.08857C86.834 7.53675 87.0441 7.06332 87.4642 6.66827C87.8906 6.26695 88.4016 6.06628 88.9974 6.06628C89.5931 6.06628 90.101 6.26695 90.5211 6.66827C90.9475 7.06332 91.1607 7.53675 91.1607 8.08857C91.1607 8.64666 90.9475 9.12636 90.5211 9.52768C90.101 9.92273 89.5931 10.1203 88.9974 10.1203Z" fill="#080808"/>
<path d="M84.1331 16.1025L80.4648 16.3282C80.4021 16.0147 80.2672 15.7325 80.0603 15.4817C79.8534 15.2246 79.5806 15.0208 79.242 14.8703C78.9096 14.7135 78.5115 14.6352 78.0474 14.6352C77.4266 14.6352 76.903 14.7668 76.4766 15.0302C76.0502 15.2873 75.837 15.6322 75.837 16.0649C75.837 16.4098 75.975 16.7013 76.2509 16.9396C76.5268 17.1779 77.0002 17.3692 77.6712 17.5134L80.2861 18.0401C81.6907 18.3286 82.7379 18.7926 83.4276 19.4322C84.1174 20.0718 84.4623 20.9121 84.4623 21.953C84.4623 22.8999 84.1833 23.7307 83.6252 24.4456C83.0734 25.1604 82.3146 25.7185 81.3489 26.1199C80.3895 26.5149 79.2827 26.7124 78.0286 26.7124C76.1161 26.7124 74.5923 26.3142 73.4573 25.5179C72.3286 24.7152 71.667 23.6241 71.4727 22.2446L75.4138 22.0377C75.5329 22.6208 75.8214 23.066 76.2791 23.3733C76.7369 23.6743 77.3232 23.8248 78.038 23.8248C78.7403 23.8248 79.3047 23.69 79.7311 23.4203C80.1638 23.1444 80.3832 22.7901 80.3895 22.3575C80.3832 21.9938 80.2296 21.6959 79.9286 21.4639C79.6276 21.2256 79.1636 21.0438 78.5365 20.9183L76.0346 20.4198C74.6237 20.1377 73.5733 19.6485 72.8836 18.9525C72.2001 18.2565 71.8583 17.3692 71.8583 16.2906C71.8583 15.3626 72.1091 14.563 72.6108 13.8921C73.1187 13.2211 73.8304 12.7038 74.7459 12.3401C75.6677 11.9764 76.7463 11.7946 77.9816 11.7946C79.8063 11.7946 81.2423 12.1802 82.2895 12.9515C83.343 13.7228 83.9575 14.7731 84.1331 16.1025Z" fill="#080808"/>
<path d="M64.8996 20.2786V11.9825H68.9066V26.4301H65.0596V23.8059H64.9091C64.583 24.6524 64.0406 25.3328 63.2818 25.8469C62.5293 26.3611 61.6107 26.6182 60.5259 26.6182C59.5602 26.6182 58.7105 26.3988 57.9769 25.9598C57.2432 25.5209 56.6694 24.8969 56.2556 24.088C55.848 23.2791 55.641 22.3103 55.6348 21.1816V11.9825H59.6417V20.4667C59.648 21.3195 59.8769 21.9936 60.3283 22.489C60.7798 22.9844 61.385 23.2321 62.1437 23.2321C62.6265 23.2321 63.078 23.1224 63.4982 22.9029C63.9183 22.6771 64.2569 22.3448 64.514 21.9058C64.7774 21.4669 64.9059 20.9245 64.8996 20.2786Z" fill="#080808"/>
<path d="M38.8711 26.4302V7.16675H42.878V14.4093H43.0003C43.1759 14.0206 43.4299 13.6255 43.7622 13.2242C44.1008 12.8166 44.5398 12.478 45.079 12.2084C45.6246 11.9324 46.3018 11.7945 47.1107 11.7945C48.1642 11.7945 49.1361 12.0704 50.0266 12.6222C50.917 13.1678 51.6287 13.9924 52.1617 15.096C52.6947 16.1933 52.9612 17.5698 52.9612 19.2252C52.9612 20.8368 52.701 22.1975 52.1805 23.3074C51.6664 24.411 50.964 25.2482 50.0736 25.8188C49.1894 26.3832 48.1987 26.6653 47.1013 26.6653C46.3238 26.6653 45.6622 26.5368 45.1167 26.2797C44.5774 26.0226 44.1353 25.6997 43.7904 25.3109C43.4455 24.9158 43.1822 24.5176 43.0003 24.1163H42.8216V26.4302H38.8711ZM42.7934 19.2064C42.7934 20.0655 42.9125 20.8148 43.1508 21.4544C43.3891 22.094 43.734 22.5925 44.1855 22.95C44.637 23.3011 45.1856 23.4767 45.8315 23.4767C46.4837 23.4767 47.0355 23.298 47.487 22.9406C47.9385 22.5769 48.2802 22.0752 48.5122 21.4356C48.7505 20.7897 48.8696 20.0467 48.8696 19.2064C48.8696 18.3724 48.7536 17.6387 48.5216 17.0054C48.2896 16.3721 47.9479 15.8767 47.4964 15.5193C47.0449 15.1618 46.4899 14.9831 45.8315 14.9831C45.1794 14.9831 44.6275 15.1556 44.1761 15.5004C43.7308 15.8453 43.3891 16.3344 43.1508 16.9678C42.9125 17.6011 42.7934 18.3473 42.7934 19.2064Z" fill="#080808"/>
<path fill-rule="evenodd" clip-rule="evenodd" d="M15.9882 12.4481L20.3227 16.7825L16.1956 20.9095L11.8612 16.5751L15.9882 12.4481ZM11.5442 8.00409L8.82673 5.28658C8.67172 5.13157 8.67172 4.88024 8.82673 4.72523L12.7094 0.842576C12.8644 0.687566 13.1157 0.687566 13.2707 0.842576L26.5443 14.1161C28.0169 15.5887 28.0169 17.9763 26.5443 19.4489L20.6396 25.3535L23.3571 28.071C23.5121 28.2261 23.5121 28.4774 23.3571 28.6324L19.4745 32.515C19.3195 32.6701 19.0681 32.6701 18.9131 32.515L5.63961 19.2415C4.167 17.7689 4.167 15.3813 5.63961 13.9087L11.5442 8.00409Z" fill="#080808"/>
</svg>
