<svg width="165" height="33" viewBox="0 0 165 33" fill="none" xmlns="http://www.w3.org/2000/svg">
<path d="M158.729 10.3473H162.587L157.499 24.3267C156.045 28.3527 153.669 30.1141 150.118 29.9184V26.5634C152.103 26.5913 153.109 25.7526 153.78 23.8793L148.049 10.3473H151.991L155.626 19.7414L158.729 10.3473Z" fill="#080808"/>
<path d="M141.552 9.95593C144.515 9.95593 146.836 12.0249 146.836 15.7434V24.3267H143.229V16.1907C143.229 14.2895 142.083 13.311 140.461 13.311C138.7 13.311 137.386 14.3455 137.386 16.7779V24.3267H133.779V10.3474H137.386V11.913C138.225 10.6549 139.679 9.95593 141.552 9.95593Z" fill="#080808"/>
<path d="M126.902 10.3474H130.509V24.3267H126.902V22.6772C125.896 23.9353 124.386 24.7181 122.345 24.7181C118.626 24.7181 115.551 21.5029 115.551 17.337C115.551 13.1712 118.626 9.95593 122.345 9.95593C124.386 9.95593 125.896 10.7388 126.902 11.9969V10.3474ZM123.016 21.2792C125.252 21.2792 126.902 19.6856 126.902 17.337C126.902 14.9885 125.252 13.3949 123.016 13.3949C120.807 13.3949 119.157 14.9885 119.157 17.337C119.157 19.6856 120.807 21.2792 123.016 21.2792Z" fill="#080808"/>
<path d="M106.913 9.95593C110.66 9.95593 113.735 13.1712 113.735 17.337C113.735 21.5029 110.66 24.7181 106.913 24.7181C104.872 24.7181 103.391 23.9633 102.384 22.6772V29.9185H98.7773V10.3474H102.384V11.9969C103.391 10.7108 104.872 9.95593 106.913 9.95593ZM106.242 21.2792C108.479 21.2792 110.129 19.6856 110.129 17.337C110.129 14.9885 108.479 13.3949 106.242 13.3949C104.034 13.3949 102.384 14.9885 102.384 17.337C102.384 19.6856 104.034 21.2792 106.242 21.2792Z" fill="#080808"/>
<path d="M90.4299 9.95593C93.6172 9.95593 95.7141 12.2206 95.7141 15.7154V24.3267H92.1075V15.9671C92.1075 14.3175 91.2687 13.311 89.7589 13.311C88.1653 13.311 87.1588 14.3734 87.1588 16.4703V24.3267H83.5521V15.9671C83.5521 14.3175 82.7133 13.311 81.2035 13.311C79.6658 13.311 78.5754 14.3734 78.5754 16.4703V24.3267H74.9688V10.3474H78.5754V11.8292C79.3583 10.6549 80.6723 9.95593 82.4617 9.95593C84.1951 9.95593 85.4812 10.6829 86.2641 11.969C87.1308 10.7108 88.5287 9.95593 90.4299 9.95593Z" fill="#080808"/>
<path d="M65.0217 24.7181C60.9118 24.7181 57.6406 21.5029 57.6406 17.337C57.6406 13.1712 60.9118 9.95593 65.0217 9.95593C69.1317 9.95593 72.4308 13.1712 72.4308 17.337C72.4308 21.5029 69.1317 24.7181 65.0217 24.7181ZM65.0217 21.1953C67.1746 21.1953 68.8241 19.6017 68.8241 17.337C68.8241 15.0724 67.1746 13.4787 65.0217 13.4787C62.8969 13.4787 61.2473 15.0724 61.2473 17.337C61.2473 19.6017 62.8969 21.1953 65.0217 21.1953Z" fill="#080808"/>
<path d="M50.3596 24.7181C46.1099 24.7181 42.9785 21.5029 42.9785 17.337C42.9785 13.1712 46.1099 9.95593 50.3596 9.95593C53.0996 9.95593 55.4761 11.4098 56.6224 13.5626L53.519 15.3799C52.9598 14.2336 51.7576 13.5067 50.3317 13.5067C48.1788 13.5067 46.5852 15.1003 46.5852 17.337C46.5852 19.5458 48.1788 21.1394 50.3317 21.1394C51.7855 21.1394 52.9877 20.4405 53.5469 19.2941L56.6783 21.0835C55.4761 23.2643 53.0996 24.7181 50.3596 24.7181Z" fill="#080808"/>
<path fill-rule="evenodd" clip-rule="evenodd" d="M12.1974 2.73254C10.9911 2.73254 10.0131 3.71045 10.0131 4.91677V11.7389H3.06508C1.85877 11.7389 0.880859 12.7168 0.880859 13.9231V30.0274C0.880859 31.2337 1.85876 32.2117 3.06508 32.2117H18.978C20.1844 32.2117 21.1623 31.2337 21.1623 30.0274V23.2053H28.1103C29.3166 23.2053 30.2945 22.2274 30.2945 21.0211V4.91676C30.2945 3.71045 29.3166 2.73254 28.1103 2.73254H12.1974ZM21.1623 23.2053V13.9231C21.1623 12.7168 20.1844 11.7389 18.978 11.7389H10.0131V21.0211C10.0131 22.2274 10.9911 23.2053 12.1974 23.2053H21.1623Z" fill="#080808"/>
</svg>
