<svg width="161" height="32" viewBox="0 0 161 32" fill="none" xmlns="http://www.w3.org/2000/svg">
<path d="M150.235 16.6954H156.062C156.009 15.3975 155.161 14.1261 153.148 14.1261C151.321 14.1261 150.314 15.5035 150.235 16.6954ZM156.406 20.0857L159.346 20.9598C158.684 23.2112 156.618 25.0918 153.413 25.0918C149.838 25.0918 146.686 22.5226 146.686 18.1257C146.686 13.9672 149.758 11.2655 153.095 11.2655C157.122 11.2655 159.532 13.8348 159.532 18.0197C159.532 18.523 159.479 19.0527 159.479 19.1057H150.155C150.235 20.8274 151.692 22.0723 153.44 22.0723C155.082 22.0723 155.983 21.2512 156.406 20.0857Z" fill="#080808"/>
<path d="M134.926 21.0658L137.945 20.4036C138.025 21.4366 138.793 22.3901 140.329 22.3901C141.495 22.3901 142.051 21.7809 142.051 21.0923C142.051 20.5095 141.654 20.0328 140.647 19.8209L138.925 19.4236C136.409 18.8673 135.27 17.3576 135.27 15.5299C135.27 13.1991 137.336 11.2655 140.144 11.2655C143.852 11.2655 145.097 13.6229 145.256 15.0267L142.316 15.6889C142.21 14.9207 141.654 13.9407 140.17 13.9407C139.243 13.9407 138.502 14.4969 138.502 15.2386C138.502 15.8743 138.978 16.2716 139.693 16.404L141.548 16.8013C144.117 17.3311 145.415 18.8938 145.415 20.8009C145.415 22.9199 143.773 25.0918 140.356 25.0918C136.436 25.0918 135.085 22.5491 134.926 21.0658Z" fill="#080808"/>
<path d="M132.798 24.6945H129.275V11.6628H132.798V24.6945ZM128.852 7.39839C128.852 6.17998 129.832 5.19995 131.024 5.19995C132.242 5.19995 133.195 6.17998 133.195 7.39839C133.195 8.56383 132.242 9.54386 131.024 9.54386C129.832 9.54386 128.852 8.56383 128.852 7.39839Z" fill="#080808"/>
<path d="M127.325 11.6099V15.1591C126.928 15.0797 126.583 15.0532 126.266 15.0532C124.464 15.0532 122.902 15.9273 122.902 18.7349V24.6945H119.379V11.6628H122.796V13.5964C123.59 11.8747 125.392 11.5569 126.504 11.5569C126.795 11.5569 127.06 11.5834 127.325 11.6099Z" fill="#080808"/>
<path d="M107.214 29.7271H103.691V11.6628H107.108V13.2521C107.691 12.2455 109.148 11.3715 111.108 11.3715C114.922 11.3715 117.12 14.2851 117.12 18.1522C117.12 22.0988 114.657 25.0124 110.975 25.0124C109.174 25.0124 107.85 24.2972 107.214 23.4231V29.7271ZM113.651 18.1787C113.651 15.8743 112.22 14.5234 110.419 14.5234C108.618 14.5234 107.161 15.8743 107.161 18.1787C107.161 20.4831 108.618 21.8604 110.419 21.8604C112.22 21.8604 113.651 20.5096 113.651 18.1787Z" fill="#080808"/>
<path d="M101.743 11.6099V15.1591C101.346 15.0797 101.001 15.0532 100.684 15.0532C98.8824 15.0532 97.3197 15.9273 97.3197 18.7349V24.6945H93.7969V11.6628H97.2137V13.5964C98.0083 11.8747 99.8095 11.5569 100.922 11.5569C101.213 11.5569 101.478 11.5834 101.743 11.6099Z" fill="#080808"/>
<path d="M82.2544 16.6954H88.0816C88.0286 15.3975 87.181 14.1261 85.168 14.1261C83.3403 14.1261 82.3338 15.5035 82.2544 16.6954ZM88.4259 20.0857L91.366 20.9598C90.7038 23.2112 88.6378 25.0918 85.4328 25.0918C81.8571 25.0918 78.7051 22.5226 78.7051 18.1257C78.7051 13.9672 81.7776 11.2655 85.115 11.2655C89.141 11.2655 91.5514 13.8348 91.5514 18.0197C91.5514 18.523 91.4984 19.0527 91.4984 19.1057H82.1749C82.2544 20.8274 83.7112 22.0723 85.4593 22.0723C87.1015 22.0723 88.0021 21.2512 88.4259 20.0857Z" fill="#080808"/>
<path d="M74.7306 7.76917V11.6628H77.3529V14.7883H74.7306V20.2446C74.7306 21.3836 75.2604 21.7544 76.2669 21.7544C76.6907 21.7544 77.1675 21.7014 77.3529 21.6485V24.5621C77.035 24.6945 76.3993 24.8799 75.3663 24.8799C72.8235 24.8799 71.2343 23.3701 71.2343 20.8539V14.7883H68.877V11.6628H69.5391C70.9165 11.6628 71.5522 10.7622 71.5522 9.59678V7.76917H74.7306Z" fill="#080808"/>
<path d="M58.9701 17.1986V24.6945H55.4473V11.6628H58.8641V13.2785C59.6587 11.9277 61.2215 11.3185 62.6253 11.3185C65.8567 11.3185 67.34 13.6229 67.34 16.4835V24.6945H63.8172V17.0927C63.8172 15.6359 63.1021 14.4969 61.4069 14.4969C59.8706 14.4969 58.9701 15.6889 58.9701 17.1986Z" fill="#080808"/>
<path d="M43.9067 16.6954H49.7339C49.6809 15.3975 48.8333 14.1261 46.8203 14.1261C44.9927 14.1261 43.9862 15.5035 43.9067 16.6954ZM50.0782 20.0857L53.0183 20.9598C52.3561 23.2112 50.2901 25.0918 47.0852 25.0918C43.5094 25.0918 40.3574 22.5226 40.3574 18.1257C40.3574 13.9672 43.4299 11.2655 46.7673 11.2655C50.7934 11.2655 53.2037 13.8348 53.2037 18.0197C53.2037 18.523 53.1508 19.0527 53.1508 19.1057H43.8272C43.9067 20.8274 45.3635 22.0723 47.1117 22.0723C48.7539 22.0723 49.6544 21.2512 50.0782 20.0857Z" fill="#080808"/>
<g clip-path="url(#clip0_4053_36929)">
<path fill-rule="evenodd" clip-rule="evenodd" d="M1.30646 21.4199C1.30646 22.1445 2.04034 22.6383 2.71157 22.3655L11.6807 18.7195C12.0655 18.5631 12.3171 18.1892 12.3171 17.7739L12.3171 13.6568C12.3171 13.2415 12.5687 12.8676 12.9534 12.7112L21.9555 9.05181C22.3402 8.89542 22.5918 8.52152 22.5918 8.10622L22.5918 3.2791C22.5918 2.71537 22.1348 2.25838 21.5711 2.25838L12.6019 2.25838C12.0382 2.25838 11.5812 2.71537 11.5812 3.2791L11.5812 10.9053C11.5812 11.469 11.1242 11.926 10.5604 11.926L2.32719 11.926C1.76345 11.926 1.30646 12.383 1.30646 12.9468L1.30646 21.4199Z" fill="#080808"/>
<path fill-rule="evenodd" clip-rule="evenodd" d="M30.381 9.2438C30.381 8.51923 29.6472 8.02536 28.9759 8.29822L20.0068 11.9442C19.622 12.1006 19.3704 12.4745 19.3704 12.8898V17.0069C19.3704 17.4222 19.1188 17.7961 18.7341 17.9525L9.73205 21.6119C9.34732 21.7683 9.0957 22.1422 9.0957 22.5575V27.3846C9.0957 27.9483 9.5527 28.4053 10.1164 28.4053H19.0856C19.6493 28.4053 20.1063 27.9483 20.1063 27.3846V19.7584C20.1063 19.1946 20.5633 18.7377 21.1271 18.7377H29.3603C29.924 18.7377 30.381 18.2807 30.381 17.7169V9.2438Z" fill="#080808"/>
</g>
<defs>
<clipPath id="clip0_4053_36929">
<rect width="30.166" height="30.166" fill="white" transform="translate(0.759766 1.06726)"/>
</clipPath>
</defs>
</svg>
