<svg width="145" height="32" viewBox="0 0 145 32" fill="none" xmlns="http://www.w3.org/2000/svg">
<path d="M137.046 9.63367C140.887 9.63367 143.403 12.3089 143.403 15.8847C143.403 16.4939 143.297 17.0501 143.191 17.5533H133.709C133.92 19.6723 135.695 20.7848 137.682 20.7848C139.244 20.7848 140.41 20.1226 141.231 19.275L143.138 21.5529C141.469 23.1422 139.748 23.7778 137.523 23.7778C133.073 23.7778 130.133 20.6788 130.133 16.7322C130.133 12.7856 133.02 9.63367 137.046 9.63367ZM137.019 12.5208C135.324 12.5208 134 13.5273 133.709 15.2225H140.039V15.196C139.907 13.5273 138.635 12.5208 137.019 12.5208Z" fill="#080808"/>
<path d="M120.033 9.9515H122.046V6.26978H125.384V9.9515H128.589V12.7062H125.384V18.7188C125.384 20.0166 126.019 20.6788 127.264 20.6788C127.662 20.6788 128.324 20.6259 128.933 20.2285V23.2481C128.324 23.5659 127.503 23.7778 126.364 23.7778C123.609 23.7778 121.94 22.1621 121.94 19.222V12.7062H120.033V9.9515Z" fill="#080808"/>
<path d="M104.828 9.95154H108.271V17.7388C108.271 19.6723 109.41 20.7054 111 20.7054C113.145 20.7054 114.099 18.7453 114.099 16.9177V9.95154H117.542V23.46H114.231V21.6059C113.383 23.0097 112.059 23.7779 110.073 23.7779C106.894 23.7779 104.828 21.7119 104.828 18.1361V9.95154Z" fill="#080808"/>
<path d="M93.832 9.9515H95.8451V6.26978H99.1825V9.9515H102.387V12.7062H99.1825V18.7188C99.1825 20.0166 99.8181 20.6788 101.063 20.6788C101.46 20.6788 102.123 20.6259 102.732 20.2285V23.2481C102.123 23.5659 101.301 23.7778 100.162 23.7778C97.4078 23.7778 95.7391 22.1621 95.7391 19.222V12.7062H93.832V9.9515Z" fill="#080808"/>
<path d="M87.891 23.4599V9.95145H91.3343V23.4599H87.891ZM89.5862 4.09778C90.6721 4.09778 91.5727 4.89239 91.5727 6.03134C91.5727 7.1703 90.6721 7.9914 89.5862 7.9914C88.4472 7.9914 87.5996 7.1703 87.5996 6.03134C87.5996 4.89239 88.4472 4.09778 89.5862 4.09778Z" fill="#080808"/>
<path d="M76.5781 9.9515H78.5912V6.26978H81.9285V9.9515H85.1335V12.7062H81.9285V18.7188C81.9285 20.0166 82.5642 20.6788 83.8091 20.6788C84.2064 20.6788 84.8686 20.6259 85.4778 20.2285V23.2481C84.8686 23.5659 84.0475 23.7778 82.9086 23.7778C80.1539 23.7778 78.4852 22.1621 78.4852 19.222V12.7062H76.5781V9.9515Z" fill="#080808"/>
<path d="M69.8592 23.7778C67.4224 23.7778 65.3299 22.6389 64.2969 20.7318L66.6277 19.0101C67.3694 20.1756 68.4024 20.9967 69.8592 20.9967C71.1306 20.9967 71.8987 20.5464 71.8987 19.8312C71.8987 18.9837 71.1836 18.6393 68.9851 17.8977C66.2304 16.9706 64.7472 15.8847 64.7472 13.6597C64.7472 11.3288 67.0251 9.63367 69.9387 9.63367C72.1636 9.63367 73.9912 10.6932 74.8653 12.3089L72.5609 13.9776C72.0047 13.0505 71.1571 12.3883 69.8857 12.3883C68.7997 12.3883 67.9786 12.8916 67.9786 13.6332C67.9786 14.3484 68.6938 14.7192 70.7862 15.4609C73.3555 16.3879 75.1301 17.2885 75.1301 19.7518C75.1301 22.0297 72.9847 23.7778 69.8592 23.7778Z" fill="#080808"/>
<path d="M49.1172 9.95151H52.4281V11.8056C53.2757 10.4018 54.6 9.63367 56.5866 9.63367C59.7651 9.63367 61.8311 11.6997 61.8311 15.2754V23.46H58.3877V15.6728C58.3877 13.7392 57.2488 12.7062 55.6595 12.7062C53.5141 12.7062 52.5605 14.6398 52.5605 16.4939V23.46H49.1172V9.95151Z" fill="#080808"/>
<path d="M41.7445 23.4599V9.95145H45.1878V23.4599H41.7445ZM43.4397 4.09778C44.5256 4.09778 45.4262 4.89239 45.4262 6.03134C45.4262 7.1703 44.5256 7.9914 43.4397 7.9914C42.3007 7.9914 41.4531 7.1703 41.4531 6.03134C41.4531 4.89239 42.3007 4.09778 43.4397 4.09778Z" fill="#080808"/>
<path fill-rule="evenodd" clip-rule="evenodd" d="M9.01785 1.64238C4.10125 4.02458 0.710938 9.06267 0.710938 14.8926C0.710938 23.0196 7.29912 29.6077 15.4261 29.6077C21.2556 29.6077 26.2934 26.2179 28.6758 21.3019H15.4413L15.4272 21.3019C11.9093 21.3019 9.05341 18.4678 9.01818 14.9582H9.01785V14.8926V1.64238ZM29.9379 17.3442C30.0716 16.5469 30.1412 15.7279 30.1412 14.8926C30.1412 6.76568 23.553 0.17749 15.4261 0.17749C14.5911 0.17749 13.7725 0.247026 12.9755 0.380622V8.96888C13.7307 8.65595 14.5588 8.48325 15.4272 8.48325C18.9669 8.48325 21.8365 11.3528 21.8365 14.8926C21.8365 15.7609 21.6638 16.589 21.3509 17.3442H29.9379Z" fill="#080808"/>
</svg>
